<svg xmlns="http://www.w3.org/2000/svg" width="16" height="16" viewBox="0 0 16 16"><circle cx="8" cy="8" r="7" fill="#9a2b22"/><circle cx="8" cy="8" r="6.2" fill="#c93023"/><circle cx="8" cy="7.74" r="5.98" fill="#d44336"/><circle cx="8" cy="7.48" r="5.76" fill="#df5648"/><circle cx="8" cy="7.22" r="5.54" fill="#e96a5b"/><circle cx="8" cy="6.96" r="5.32" fill="#f47d6d"/><circle cx="8" cy="6.7" r="5.1" fill="#ff9080"/><path fill="#ffc0b440" d="M12.7 11.2C12.7 12.69 10.6 13.9 8 13.9C5.4 13.9 3.3 12.69 3.3 11.2C3.3 9.71 5.4 8.5 8 8.5C10.6 8.5 12.7 9.71 12.7 11.2z"/><path fill="#ffc0b455" d="M11.9 11.2C11.9 12.36 10.15 13.3 8 13.3C5.85 13.3 4.1 12.36 4.1 11.2C4.1 10.04 5.85 9.1 8 9.1C10.15 9.1 11.9 10.04 11.9 11.2z"/><path fill="#ffc0b470" d="M11 11.2C11 12.03 9.66 12.7 8 12.7C6.34 12.7 5 12.03 5 11.2C5 10.37 6.34 9.7 8 9.7C9.66 9.7 11 10.37 11 11.2z"/><path fill="#ffffff38" d="M12.9 4.9C12.9 6.39 10.71 7.6 8 7.6C5.29 7.6 3.1 6.39 3.1 4.9C3.1 3.41 5.29 2.2 8 2.2C10.71 2.2 12.9 3.41 12.9 4.9z"/><path fill="#ffffff55" d="M12.3 4.6C12.3 5.82 10.37 6.8 8 6.8C5.63 6.8 3.7 5.82 3.7 4.6C3.7 3.38 5.63 2.4 8 2.4C10.37 2.4 12.3 3.38 12.3 4.6z"/><path fill="#ffffff80" d="M11.6 4.3C11.6 5.24 9.99 6 8 6C6.01 6 4.4 5.24 4.4 4.3C4.4 3.36 6.01 2.6 8 2.6C9.99 2.6 11.6 3.36 11.6 4.3z"/><path fill="#ffffffb8" d="M10.7 4C10.7 4.64 9.49 5.15 8 5.15C6.51 5.15 5.3 4.64 5.3 4C5.3 3.36 6.51 2.85 8 2.85C9.49 2.85 10.7 3.36 10.7 4z"/></svg>